<svg width="260" height="399" viewBox="0 0 260 399" fill="none" xmlns="http://www.w3.org/2000/svg">
<path d="M87.5 47C103.1 35.8 121 35 128 36C150 36 165.833 43.3333 171 47C172.833 44.3333 178.8 38.7 188 37.5C197.2 36.3 202.5 41 204 43.5C226 44.7 228.167 51.6667 226.5 55C220.53 64.7018 211.775 63.2646 207.379 60.9983C213.151 64.5109 211.591 68.7503 210 70.5C198.934 82.8829 189.72 81.3395 183.528 76.2714C191.945 105.899 212.343 100.441 221.5 94C221.1 106 208 113 201.5 115C215.9 117.8 227.167 111.833 231 108.5C216.2 136.1 193.167 140 183.5 138.5L194 149L161.5 141L165.5 147C145.1 150.6 108.333 148.5 92.5 147L94.5 141L64.5 149L72 138.5C46.4 140.1 31.3333 119.167 27 108.5C39.4 116.9 52.5 115 57.5 113C44.3 112.2 38.6667 100 37.5 94C61.1 106 70.3333 87.1151 72 76.1727C68.906 77.8954 66.1116 78.7455 64.5 79C40.1 81.4 46 67.6667 52 60.5C43.2 67.7 36.3333 61.8333 34 58C32.5 53.5 32.3 44.8 43.5 46C54.7 47.2 67.1667 40.8333 72 37.5C75.2 35.9 83.6667 43.1667 87.5 47Z" fill="#4F494B"/>
<path d="M81 68.5C78.25 72.0357 74.9855 74.5104 72 76.1727M72 76.1727C68.906 77.8954 66.1116 78.7455 64.5 79C40.1 81.4 46 67.6667 52 60.5C43.2 67.7 36.3333 61.8333 34 58C32.5 53.5 32.3 44.8 43.5 46C54.7 47.2 67.1667 40.8333 72 37.5C75.2 35.9 83.6667 43.1667 87.5 47C103.1 35.8 121 35 128 36C150 36 165.833 43.3333 171 47C172.833 44.3333 178.8 38.7 188 37.5C197.2 36.3 202.5 41 204 43.5C226 44.7 228.167 51.6667 226.5 55C220.1 65.4 210.5 63 206.5 60.5C213.3 64.1 211.667 68.6667 210 70.5C193.2 89.3 180.667 76 176.5 67C176.1 72.2 181 75.2818 183.5 76.1727C191.9 105.911 212.333 100.448 221.5 94C221.1 106 208 113 201.5 115C215.9 117.8 227.167 111.833 231 108.5C216.2 136.1 193.167 140 183.5 138.5L194 149L161.5 141L165.5 147C145.1 150.6 108.333 148.5 92.5 147L94.5 141L64.5 149L72 138.5C46.4 140.1 31.3333 119.167 27 108.5C39.4 116.9 52.5 115 57.5 113C44.3 112.2 38.6667 100 37.5 94C61.1 106 70.3333 87.1151 72 76.1727Z" stroke="#403C3D" stroke-width="4" stroke-linejoin="round"/>
<path d="M107 122.5C113.833 123.667 127.7 124 128.5 116C129 119.833 134.4 126.5 152 122.5" stroke="#403C3D" stroke-width="3" stroke-linecap="round" stroke-linejoin="round"/>
<path d="M166.192 73.492C165.915 74.4425 162.205 75.3382 160.385 75.6672C159.923 77.2513 159.715 80.6281 162.576 81.4616C166.153 82.5035 166.538 72.3039 166.192 73.492Z" fill="#BDF0E9" stroke="#BDF0E9"/>
<path d="M113.5 83C113.5 87.5909 109.576 91.5 104.5 91.5C99.4235 91.5 95.5 87.5909 95.5 83C95.5 78.4091 99.4235 74.5 104.5 74.5C109.576 74.5 113.5 78.4091 113.5 83Z" fill="#DEFEFB" stroke="#BDF0E9" stroke-width="5"/>
<path d="M162.5 83C162.5 87.5909 158.576 91.5 153.5 91.5C148.424 91.5 144.5 87.5909 144.5 83C144.5 78.4091 148.424 74.5 153.5 74.5C158.576 74.5 162.5 78.4091 162.5 83Z" fill="#DEFEFB" stroke="#BDF0E9" stroke-width="5"/>
<path d="M91.8085 73.492C92.0854 74.4425 95.7952 75.3382 97.6155 75.6672C98.077 77.2513 98.2847 80.6281 95.4235 81.4616C91.8471 82.5035 91.4624 72.3039 91.8085 73.492Z" fill="#BDF0E9" stroke="#BDF0E9"/>
<path d="M126.505 109.829L127.749 111.229L129.228 110.079C135.885 104.901 139.35 104.767 140.798 105.31C142.187 105.831 142.661 107.367 142.527 108.171C142.506 108.301 142.301 108.808 141.508 109.601C140.771 110.338 139.706 111.14 138.391 111.884C135.748 113.378 132.335 114.5 129 114.5C125.579 114.5 120.936 113.332 117.895 111.529C116.348 110.613 115.526 109.715 115.252 109.019C115.133 108.716 115.113 108.445 115.182 108.16C115.254 107.855 115.458 107.415 115.974 106.851C116.774 105.979 117.585 105.613 118.37 105.502C119.196 105.386 120.14 105.534 121.171 105.937C123.271 106.759 125.298 108.471 126.505 109.829Z" fill="#FDE6F0" stroke="#FFD8EA" stroke-width="4"/>
<path d="M234.961 150.833C215.245 189.622 184.019 184.331 170.871 176.837L194.067 208.711C208.381 194.32 212.024 214.643 212.056 226.604C239.187 187.232 243.409 222.435 242.129 244.958C269.373 209.086 248.702 167.261 234.961 150.833Z" fill="#4F494B" stroke="#413D3E" stroke-width="4"/>
<path d="M24.8484 150.543C45.0102 189.103 76.1729 183.452 89.2341 175.807L66.4069 207.947C51.9281 193.721 48.5194 214.085 48.6248 226.045C21.0424 186.989 17.2259 222.238 18.7655 244.745C-8.89026 209.189 11.2975 167.129 24.8484 150.543Z" fill="#4F494B" stroke="#413D3E" stroke-width="4"/>
<path d="M157 273C163.833 285.833 185.2 308.6 216 297C203.5 315.667 174.2 337 157 273Z" fill="#4F494B" stroke="#413D3E" stroke-width="4" stroke-linejoin="round"/>
<path d="M84.5 371C94.9 367 95.1667 328.333 94 309.5L122 312.5C122.8 320.9 118.667 358 116.5 375.5L121 378L110.703 392.774C112.992 391.432 111.088 393.176 109.5 394.5L110.703 392.774C110.11 393.122 109.235 393.677 108 394.5C102 398.5 94.8333 396.167 92 394.5C84.8 398.5 77.6667 394.167 75 391.5C69 395.1 66.5 391.667 66 389.5C66.8 370.7 78.6667 369.333 84.5 371Z" fill="#4F494B"/>
<path d="M75 391.5C69 395.1 66.5 391.667 66 389.5C66.8 370.7 78.6667 369.333 84.5 371C94.9 367 95.1667 328.333 94 309.5L122 312.5C122.8 320.9 118.667 358 116.5 375.5L121 378L109.5 394.5C111.5 392.833 114 390.5 108 394.5C102 398.5 94.8333 396.167 92 394.5M75 391.5C77.6667 394.167 84.8 398.5 92 394.5M75 391.5C75 388.333 76 381.5 80 379.5L75 391.5ZM92 394.5C90.8333 391.833 89.2 385.4 92 381V394.5Z" stroke="#413D3E" stroke-width="3"/>
<path d="M174.601 371.5C164.201 367.5 163.935 328.833 165.101 310L137.101 313C136.301 321.4 140.435 358.5 142.601 376L138.101 378.5L148.398 393.274C146.109 391.932 148.013 393.676 149.601 395L148.398 393.274C148.992 393.622 149.866 394.177 151.101 395C157.101 399 164.268 396.667 167.101 395C174.301 399 181.435 394.667 184.101 392C190.101 395.6 192.601 392.167 193.101 390C192.301 371.2 180.435 369.833 174.601 371.5Z" fill="#4F494B"/>
<path d="M184.101 392C190.101 395.6 192.601 392.167 193.101 390C192.301 371.2 180.435 369.833 174.601 371.5C164.201 367.5 163.935 328.833 165.101 310L137.101 313C136.301 321.4 140.435 358.5 142.601 376L138.101 378.5L149.601 395C147.601 393.333 145.101 391 151.101 395C157.101 399 164.268 396.667 167.101 395M184.101 392C181.435 394.667 174.301 399 167.101 395M184.101 392C184.101 388.833 183.101 382 179.101 380L184.101 392ZM167.101 395C168.268 392.333 169.901 385.9 167.101 381.5V395Z" stroke="#413D3E" stroke-width="3"/>
<path d="M85 290L90 288.5V284.5V267.5V262.5C128.8 272.1 158.5 266.5 168.5 262.5L168.788 267.5L169.769 284.5L170 288.5L173 291.5L168.5 307.5C159.3 313.9 141 310.167 133 307.5L131.5 299.5H126.5L125 307.5C110.6 314.7 94.6667 310.5 88.5 307.5L85 290Z" fill="#EBF5FE"/>
<path d="M90 288.5L85 290L88.5 307.5C94.6667 310.5 110.6 314.7 125 307.5L126.5 299.5H131.5L133 307.5C141 310.167 159.3 313.9 168.5 307.5L173 291.5L170 288.5M90 288.5V284.5M90 288.5C90.6667 291.5 96.1 297.7 112.5 298.5C106.667 298.167 94 295.7 90 288.5ZM170 288.5L169.769 284.5M170 288.5C167.167 292.333 158.9 299.7 148.5 298.5C152.833 298.5 163.2 296.5 170 288.5ZM90 284.5C92.6667 284.833 98.4 284.8 100 282C101.6 279.2 100.667 272.167 100 269L90 267.5M90 284.5V267.5M90 267.5V262.5C128.8 272.1 158.5 266.5 168.5 262.5L168.788 267.5M168.788 267.5L157 270.5C156.333 273.5 155.4 280 157 282C159 284.5 160.538 287 169.769 284.5M168.788 267.5L169.769 284.5" stroke="#CADAEA" stroke-width="4" stroke-linejoin="round"/>
<path d="M84 179.5L105.5 162C126.7 167.2 146.667 164.167 154 162L174.5 179.5L184.5 252L154 264.5H104L75 252L84 179.5Z" fill="url(#paint0_linear_5_2)" stroke="#413D3E" stroke-width="4" stroke-linejoin="round"/>
<path d="M95.5455 186L91 196.292L95.5455 205L101 196.292L95.5455 186Z" fill="#FFFEFE" stroke="#FFFEFE" stroke-width="4"/>
<path d="M111.273 211L109 216.417L111.273 221L114 216.417L111.273 211Z" fill="#FFFEFE" stroke="#FFFEFE" stroke-width="4"/>
<path d="M133.727 205L131 210.958L133.727 216L137 210.958L133.727 205Z" fill="#FFFEFE" stroke="#FFFEFE" stroke-width="4"/>
<path d="M146.727 226L144 233.042L146.727 239L150 233.042L146.727 226Z" fill="#FFFEFE" stroke="#FFFEFE" stroke-width="4"/>
<path d="M156.727 191L154 196.958L156.727 202L160 196.958L156.727 191Z" fill="#FFFEFE" stroke="#FFFEFE" stroke-width="4"/>
<path d="M168.818 213L167 217.333L168.818 221L171 217.333L168.818 213Z" fill="#FFFEFE" stroke="#FFFEFE" stroke-width="4"/>
<path d="M41.5 255L83.5 182L78 225.5L55.5 262.5C61.9 268.5 60.1667 277 58.5 280.5C58.1 284.1 52.3333 286 49.5 286.5L44.5 293L41.5 286.5L36.5 282.5L25.5 286.5L29.5 276L25.5 271.5L19 269L25.5 264C25.3333 263.167 25.9 260.6 29.5 257C33.1 253.4 39 254.167 41.5 255Z" fill="#4F494B" stroke="#413D3E" stroke-width="4" stroke-linejoin="round"/>
<path d="M218 253L176 180L181.5 223.5L204 260.5C197.6 266.5 199.333 275 201 278.5C201.4 282.1 207.167 284 210 284.5L215 291L218 284.5L223 280.5L234 284.5L230 274L234 269.5L240.5 267L234 262C234.167 261.167 233.6 258.6 230 255C226.4 251.4 220.5 252.167 218 253Z" fill="#4F494B" stroke="#413D3E" stroke-width="4" stroke-linejoin="round"/>
<path d="M107 160C104.6 156.4 106 152.167 107 150.5C123.8 145.3 144.333 148.333 152.5 150.5C154.5 153.3 153.333 158 152.5 160C152 164 110 164.5 107 160Z" fill="#DEFEFB" stroke="#BDEEEA" stroke-width="4" stroke-linejoin="round"/>
<path d="M108.5 3.5C80.1 25.9 91.3333 46.8333 100.5 54.5C115.7 63.7 120.167 52.6667 120.5 46C98.5 44 103.333 16.8333 108.5 3.5Z" fill="#4F494B" stroke="#403C3D" stroke-width="5" stroke-linecap="round" stroke-linejoin="round"/>
<path d="M149 3C177.4 25.4 166.167 46.3333 157 54C141.8 63.2 137.333 52.1667 137 45.5C159 43.5 154.167 16.3333 149 3Z" fill="#4F494B" stroke="#403C3D" stroke-width="5" stroke-linecap="round" stroke-linejoin="round"/>
<defs>
<linearGradient id="paint0_linear_5_2" x1="93" y1="182.5" x2="162.5" y2="242.5" gradientUnits="userSpaceOnUse">
<stop stop-color="#4A7460"/>
<stop offset="0.995122" stop-color="#604868"/>
</linearGradient>
</defs>
</svg>
